<svg width="26" height="26" viewBox="0 0 26 26" fill="none" xmlns="http://www.w3.org/2000/svg">
<path d="M23.255 8.75V18.8089C23.255 19.6221 22.9443 20.4047 22.3864 20.9963C21.8285 21.588 21.0656 21.9441 20.2538 21.9919L20.0667 21.9972H5.18825C4.37502 21.9972 3.59251 21.6865 3.00083 21.1286C2.40915 20.5707 2.05302 19.8078 2.00531 18.996L2 18.8089V8.75L12.0377 15.4421L12.1609 15.5123C12.3062 15.5833 12.4658 15.6202 12.6275 15.6202C12.7892 15.6202 12.9488 15.5833 13.094 15.5123L13.2173 15.4421L23.255 8.75Z" fill="#999999"/>
<path d="M20.0665 5C21.2142 5 22.2207 5.60577 22.7818 6.51654L12.6272 13.2863L2.47266 6.51654C2.73919 6.08382 3.1053 5.72108 3.54048 5.45857C3.97565 5.19605 4.46728 5.04138 4.97437 5.00744L5.18798 5H20.0665Z" fill="#999999"/>
</svg>
