<svg width="26" height="26" viewBox="0 0 26 26" fill="none" xmlns="http://www.w3.org/2000/svg">
<path d="M7.39151 16.3047C7.38945 16.8862 7.15747 17.4433 6.74621 17.8543C6.33494 18.2654 5.77778 18.4971 5.19631 18.4989C4.61446 18.4974 4.05684 18.2657 3.6453 17.8543C3.23377 17.443 3.00177 16.8855 3 16.3036C3 15.0949 3.98767 14.1071 5.19631 14.1071H7.39151V16.3047ZM8.49859 16.3047C8.49859 15.096 9.48626 14.1083 10.6949 14.1083C11.9035 14.1083 12.8901 15.096 12.8901 16.3047V21.8036C12.8886 22.3855 12.6569 22.9431 12.2456 23.3547C11.8343 23.7662 11.2768 23.9982 10.6949 24C10.1129 23.9985 9.55507 23.7666 9.1435 23.3551C8.73193 22.9435 8.50006 22.3856 8.49859 21.8036V16.3047ZM10.6949 7.39062C10.1131 7.38915 9.55543 7.15742 9.1439 6.74607C8.73236 6.33472 8.50036 5.7772 8.49859 5.19531C8.49859 3.98661 9.48626 3 10.6949 3C11.9035 3 12.8901 3.98661 12.8901 5.19531V7.39174L10.6949 7.39062ZM10.6949 8.49777C11.9035 8.49777 12.8901 9.48438 12.8901 10.6931C12.8886 11.275 12.6569 11.8326 12.2456 12.2442C11.8343 12.6557 11.2768 12.8877 10.6949 12.8895H5.19631C4.61427 12.888 4.05648 12.6562 3.64491 12.2446C3.23334 11.833 3.00147 11.2752 3 10.6931C3 9.48438 3.98767 8.49777 5.19631 8.49777H10.6949ZM19.6074 10.6931C19.6074 9.48438 20.595 8.49777 21.8037 8.49777C23.0123 8.49777 24 9.48438 24 10.6931C23.9985 11.2752 23.7667 11.833 23.3551 12.2446C22.9435 12.6562 22.3857 12.888 21.8037 12.8895H19.6074V10.6931ZM18.5014 10.6931C18.4999 11.2752 18.2681 11.833 17.8565 12.2446C17.4449 12.6562 16.8871 12.888 16.3051 12.8895C15.7231 12.888 15.1653 12.6562 14.7537 12.2446C14.3421 11.833 14.1103 11.2752 14.1088 10.6931V5.19531C14.1088 3.98661 15.0965 3 16.3051 3C17.5137 3 18.5014 3.98661 18.5014 5.19531V10.6931ZM16.3051 19.6071C17.5137 19.6071 18.5014 20.5949 18.5014 21.8036C18.4999 22.3856 18.2681 22.9435 17.8565 23.3551C17.4449 23.7666 16.8871 23.9985 16.3051 24C15.7231 23.9985 15.1653 23.7666 14.7537 23.3551C14.3421 22.9435 14.1103 22.3856 14.1088 21.8036V19.6071H16.3051ZM16.3051 18.5C15.7232 18.4985 15.1656 18.2668 14.7541 17.8554C14.3426 17.4441 14.1106 16.8866 14.1088 16.3047C14.1088 15.096 15.0965 14.1083 16.3051 14.1083H21.8037C23.0123 14.1083 24 15.096 24 16.3047C23.9982 16.8866 23.7662 17.4441 23.3547 17.8554C22.9432 18.2668 22.3855 18.4985 21.8037 18.5H16.3051Z" fill="#999999"/>
</svg>
