<svg width="48" height="48" viewBox="0 0 48 48" fill="none" xmlns="http://www.w3.org/2000/svg">
<rect width="48" height="48" rx="8" fill="#F5F5F5"/>
<path d="M25.1136 13.1641C26.3324 13.1673 26.951 13.1738 27.485 13.189L27.6952 13.1966C27.9379 13.2052 28.1773 13.2161 28.4665 13.2291C29.6192 13.2832 30.4057 13.4652 31.0958 13.7328C31.8108 14.008 32.4131 14.3806 33.0155 14.9819C33.5666 15.5233 33.9928 16.1784 34.2645 16.9016C34.5321 17.5916 34.7141 18.3781 34.7683 19.5319C34.7813 19.8201 34.7921 20.0595 34.8008 20.3032L34.8073 20.5134C34.8235 21.0464 34.83 21.665 34.8322 22.8837L34.8333 23.6919V25.1111C34.8359 25.9012 34.8276 26.6914 34.8084 27.4814L34.8019 27.6916C34.7932 27.9353 34.7824 28.1747 34.7694 28.4629C34.7152 29.6166 34.531 30.4021 34.2645 31.0932C33.9928 31.8164 33.5666 32.4715 33.0155 33.0129C32.4741 33.564 31.819 33.9903 31.0958 34.262C30.4057 34.5296 29.6192 34.7116 28.4665 34.7657L27.6952 34.7982L27.485 34.8047C26.951 34.8199 26.3324 34.8275 25.1136 34.8296L24.3055 34.8307H22.8874C22.0968 34.8335 21.3063 34.8252 20.516 34.8058L20.3058 34.7993C20.0486 34.7896 19.7915 34.7784 19.5345 34.7657C18.3818 34.7116 17.5953 34.5296 16.9041 34.262C16.1814 33.9901 15.5266 33.5638 14.9855 33.0129C14.4341 32.4716 14.0074 31.8165 13.7354 31.0932C13.4678 30.4031 13.2858 29.6166 13.2316 28.4629L13.1991 27.6916L13.1937 27.4814C13.1737 26.6914 13.1647 25.9013 13.1666 25.1111V22.8837C13.1636 22.0935 13.1716 21.3034 13.1905 20.5134L13.198 20.3032C13.2067 20.0595 13.2175 19.8201 13.2305 19.5319C13.2847 18.3781 13.4667 17.5927 13.7343 16.9016C14.007 16.1781 14.4344 15.523 14.9866 14.9819C15.5274 14.4311 16.1818 14.0048 16.9041 13.7328C17.5953 13.4652 18.3807 13.2832 19.5345 13.2291C19.8226 13.2161 20.0631 13.2052 20.3058 13.1966L20.516 13.1901C21.3059 13.1708 22.0961 13.1625 22.8863 13.1651L25.1136 13.1641ZM24 18.5807C22.5634 18.5807 21.1856 19.1514 20.1698 20.1672C19.154 21.1831 18.5833 22.5608 18.5833 23.9974C18.5833 25.434 19.154 26.8117 20.1698 27.8276C21.1856 28.8434 22.5634 29.4141 24 29.4141C25.4366 29.4141 26.8143 28.8434 27.8301 27.8276C28.8459 26.8117 29.4166 25.434 29.4166 23.9974C29.4166 22.5608 28.8459 21.1831 27.8301 20.1672C26.8143 19.1514 25.4366 18.5807 24 18.5807ZM24 20.7474C24.4268 20.7473 24.8494 20.8313 25.2437 20.9946C25.6381 21.1578 25.9964 21.3972 26.2982 21.6989C26.6001 22.0007 26.8395 22.3589 27.0029 22.7532C27.1663 23.1475 27.2504 23.5701 27.2505 23.9969C27.2506 24.4236 27.1666 24.8463 27.0033 25.2406C26.8401 25.635 26.6007 25.9933 26.299 26.2951C25.9972 26.5969 25.639 26.8364 25.2447 26.9998C24.8504 27.1632 24.4278 27.2473 24.001 27.2474C23.1391 27.2474 22.3124 26.905 21.703 26.2955C21.0935 25.686 20.751 24.8593 20.751 23.9974C20.751 23.1354 21.0935 22.3088 21.703 21.6993C22.3124 21.0898 23.1391 20.7474 24.001 20.7474M29.6885 16.9557C29.3294 16.9557 28.985 17.0984 28.731 17.3524C28.4771 17.6063 28.3344 17.9507 28.3344 18.3099C28.3344 18.669 28.4771 19.0135 28.731 19.2674C28.985 19.5214 29.3294 19.6641 29.6885 19.6641C30.0477 19.6641 30.3921 19.5214 30.6461 19.2674C30.9 19.0135 31.0427 18.669 31.0427 18.3099C31.0427 17.9507 30.9 17.6063 30.6461 17.3524C30.3921 17.0984 30.0477 16.9557 29.6885 16.9557Z" fill="#999999"/>
</svg>
