<svg width="22" height="22" viewBox="0 0 22 22" fill="none" xmlns="http://www.w3.org/2000/svg">
<path d="M11.9476 0C13.1664 0.00325 13.7849 0.00975 14.319 0.0249167L14.5292 0.0325C14.7719 0.0411666 15.0113 0.0519999 15.3005 0.0649999C16.4532 0.119167 17.2397 0.301167 17.9298 0.56875C18.6448 0.843917 19.2471 1.21658 19.8495 1.81783C20.4005 2.35921 20.8268 3.01434 21.0985 3.7375C21.3661 4.42758 21.5481 5.21408 21.6023 6.36783C21.6153 6.656 21.6261 6.89542 21.6348 7.13917L21.6413 7.34933C21.6575 7.88233 21.664 8.50092 21.6662 9.71967L21.6673 10.5278V11.947C21.6699 12.7372 21.6616 13.5274 21.6424 14.3173L21.6359 14.5275C21.6272 14.7712 21.6164 15.0107 21.6034 15.2988C21.5492 16.4526 21.365 17.238 21.0985 17.9292C20.8268 18.6523 20.4005 19.3075 19.8495 19.8488C19.3081 20.3999 18.6529 20.8262 17.9298 21.0979C17.2397 21.3655 16.4532 21.5475 15.3005 21.6017L14.5292 21.6342L14.319 21.6407C13.7849 21.6558 13.1664 21.6634 11.9476 21.6656L11.1394 21.6667H9.72137C8.93082 21.6695 8.14027 21.6611 7.34995 21.6417L7.13978 21.6353C6.88261 21.6255 6.6255 21.6143 6.36845 21.6017C5.21578 21.5475 4.42928 21.3655 3.73812 21.0979C3.01535 20.8261 2.3606 20.3998 1.81953 19.8488C1.26806 19.3076 0.841401 18.6524 0.569366 17.9292C0.301783 17.2391 0.119783 16.4526 0.0656161 15.2988L0.0331162 14.5275L0.0276996 14.3173C0.00772951 13.5274 -0.00129924 12.7372 0.000616197 11.947V9.71967C-0.00238236 8.92948 0.00556293 8.1393 0.0244496 7.34933L0.0320329 7.13917C0.0406996 6.89542 0.0515329 6.656 0.0645329 6.36783C0.1187 5.21408 0.300699 4.42867 0.568283 3.7375C0.840952 3.01405 1.26836 2.35889 1.82062 1.81783C2.36137 1.26701 3.01574 0.840746 3.73812 0.56875C4.42928 0.301167 5.2147 0.119167 6.36845 0.0649999C6.65662 0.0519999 6.89712 0.0411666 7.13978 0.0325L7.34995 0.0259999C8.13991 0.0067521 8.93009 -0.00155426 9.72028 0.00108325L11.9476 0ZM10.8339 5.41667C9.39736 5.41667 8.01961 5.98735 7.00379 7.00317C5.98797 8.01899 5.41728 9.39674 5.41728 10.8333C5.41728 12.2699 5.98797 13.6477 7.00379 14.6635C8.01961 15.6793 9.39736 16.25 10.8339 16.25C12.2705 16.25 13.6483 15.6793 14.6641 14.6635C15.6799 13.6477 16.2506 12.2699 16.2506 10.8333C16.2506 9.39674 15.6799 8.01899 14.6641 7.00317C13.6483 5.98735 12.2705 5.41667 10.8339 5.41667ZM10.8339 7.58333C11.2607 7.58326 11.6834 7.66726 12.0777 7.83052C12.472 7.99378 12.8304 8.23311 13.1322 8.53485C13.434 8.83659 13.6735 9.19483 13.8369 9.58911C14.0003 9.98339 14.0844 10.406 14.0845 10.8328C14.0846 11.2596 14.0006 11.6822 13.8373 12.0766C13.674 12.4709 13.4347 12.8292 13.133 13.131C12.8312 13.4329 12.473 13.6723 12.0787 13.8357C11.6844 13.9991 11.2618 14.0833 10.835 14.0833C9.97308 14.0833 9.14643 13.7409 8.53694 13.1314C7.92744 12.5219 7.58503 11.6953 7.58503 10.8333C7.58503 9.97138 7.92744 9.14473 8.53694 8.53524C9.14643 7.92574 9.97308 7.58333 10.835 7.58333M16.5225 3.79167C16.1634 3.79167 15.8189 3.93434 15.565 4.18829C15.311 4.44225 15.1684 4.78669 15.1684 5.14583C15.1684 5.50498 15.311 5.84942 15.565 6.10337C15.8189 6.35733 16.1634 6.5 16.5225 6.5C16.8817 6.5 17.2261 6.35733 17.4801 6.10337C17.734 5.84942 17.8767 5.50498 17.8767 5.14583C17.8767 4.78669 17.734 4.44225 17.4801 4.18829C17.2261 3.93434 16.8817 3.79167 16.5225 3.79167Z" fill="#999999"/>
</svg>
