<svg width="21" height="21" viewBox="0 0 21 21" fill="none" xmlns="http://www.w3.org/2000/svg">
<g clip-path="url(#clip0_886_16850)">
<path d="M12.0571 6.29932C12.6467 6.19006 13.1933 5.91615 13.6337 5.50925C14.0741 5.10236 14.3904 4.5791 14.5459 4C14.7014 3.4209 14.6898 2.80961 14.5125 2.23682C14.3351 1.66403 13.9993 1.15314 13.5437 0.763234C13.0882 0.373324 12.5316 0.120322 11.9383 0.0334857C11.345 -0.0533507 10.7393 0.0295259 10.1911 0.272531C9.64293 0.515537 9.17475 0.908745 8.84069 1.40668C8.50663 1.90462 8.32034 2.48695 8.30336 3.08632H9.84948C11.0688 3.08632 12.0571 4.07464 12.0571 5.29395V6.29932ZM6.41992 16.4554H9.84948C11.0688 16.4554 12.0571 15.4671 12.0571 14.2478V7.32701H15.7098C15.953 7.3332 16.1839 7.43562 16.3517 7.6118C16.5195 7.78797 16.6106 8.02352 16.6049 8.26676V13.9026C16.6387 15.3619 16.092 16.775 15.0847 17.8315C14.0775 18.8879 12.6921 19.5014 11.2329 19.5372C9.10923 19.4847 7.29536 18.2378 6.41992 16.4528V16.4554ZM20.5122 4.1547C20.5122 4.44332 20.4554 4.72911 20.3449 4.99575C20.2345 5.2624 20.0726 5.50468 19.8685 5.70877C19.6644 5.91285 19.4222 6.07474 19.1555 6.18518C18.8889 6.29563 18.6031 6.35248 18.3145 6.35248C18.0258 6.35248 17.74 6.29563 17.4734 6.18518C17.2068 6.07474 16.9645 5.91285 16.7604 5.70877C16.5563 5.50468 16.3944 5.2624 16.284 4.99575C16.1735 4.72911 16.1167 4.44332 16.1167 4.1547C16.1167 3.57181 16.3482 3.0128 16.7604 2.60063C17.1726 2.18847 17.7316 1.95692 18.3145 1.95692C18.8973 1.95692 19.4564 2.18847 19.8685 2.60063C20.2807 3.0128 20.5122 3.57181 20.5122 4.1547ZM17.5749 16.6077L17.4174 16.6051C17.7675 15.743 17.9377 14.8184 17.9174 13.8882V8.27989C17.9225 7.95209 17.8553 7.6272 17.7205 7.32832H20.0725C20.5844 7.32832 21.0005 7.74439 21.0005 8.25626V13.1978C20.9998 14.102 20.6403 14.9689 20.001 15.6082C19.3617 16.2475 18.4948 16.607 17.5906 16.6077H17.5749Z" fill="#999999"/>
<path d="M0.895129 4.39975H9.849C10.3438 4.39975 10.7441 4.80006 10.7441 5.29488V14.2487C10.7445 14.3664 10.7216 14.483 10.6767 14.5917C10.6318 14.7005 10.5659 14.7993 10.4827 14.8825C10.3995 14.9657 10.3007 15.0316 10.192 15.0764C10.0832 15.1213 9.96665 15.1442 9.849 15.1439H0.895129C0.777482 15.1442 0.660928 15.1213 0.55217 15.0764C0.443412 15.0316 0.344596 14.9657 0.261407 14.8825C0.178218 14.7993 0.112297 14.7005 0.0674354 14.5917C0.0225739 14.483 -0.000342659 14.3664 3.87204e-06 14.2487V5.29356C3.87204e-06 4.79875 0.400316 4.39975 0.895129 4.39975ZM7.728 7.807V6.862H3.01613V7.807H4.79719V12.6829H5.93907V7.807H7.728Z" fill="#999999"/>
</g>
<defs>
<clipPath id="clip0_886_16850">
<rect width="21" height="21" fill="white"/>
</clipPath>
</defs>
</svg>
