<svg width="867" height="867" viewBox="0 0 867 867" fill="none" xmlns="http://www.w3.org/2000/svg">
<rect width="867" height="867" rx="144.5" fill="#F5F5F5"/>
<path d="M433.523 237.773C541.596 237.773 629.2 325.378 629.2 433.451C629.2 541.523 541.596 629.128 433.523 629.128C398.942 629.187 364.969 620.035 335.098 602.613L237.924 629.128L264.38 531.915C246.944 502.034 237.785 468.047 237.846 433.451C237.846 325.378 325.451 237.773 433.523 237.773ZM366.836 341.482L362.923 341.639C360.393 341.813 357.92 342.478 355.644 343.596C353.522 344.799 351.585 346.302 349.891 348.057C347.543 350.268 346.212 352.186 344.784 354.045C337.546 363.455 333.649 375.008 333.708 386.879C333.747 396.468 336.252 405.801 340.166 414.529C348.169 432.179 361.338 450.866 378.714 468.183C382.901 472.351 387.011 476.539 391.433 480.433C413.025 499.441 438.753 513.149 466.573 520.468L477.687 522.171C481.307 522.366 484.927 522.092 488.567 521.916C494.265 521.616 499.828 520.073 504.867 517.396C507.427 516.072 509.928 514.636 512.361 513.091C512.361 513.091 513.19 512.53 514.807 511.33C517.449 509.373 519.073 507.984 521.265 505.695C522.908 503.999 524.278 502.029 525.374 499.785C526.9 496.596 528.426 490.51 529.053 485.442C529.522 481.568 529.385 479.454 529.327 478.143C529.248 476.049 527.507 473.877 525.609 472.958L514.22 467.851C514.22 467.851 497.196 460.434 486.786 455.699C485.697 455.225 484.53 454.953 483.342 454.897C482.004 454.757 480.65 454.906 479.374 455.335C478.098 455.764 476.929 456.462 475.946 457.382C475.848 457.343 474.537 458.458 460.39 475.599C459.578 476.69 458.459 477.515 457.177 477.968C455.894 478.421 454.506 478.482 453.189 478.143C451.913 477.803 450.664 477.372 449.451 476.852C447.025 475.834 446.183 475.443 444.52 474.738C433.286 469.845 422.887 463.222 413.701 455.112C411.235 452.96 408.946 450.611 406.598 448.342C398.9 440.969 392.191 432.628 386.639 423.53L385.484 421.671C384.668 420.414 383.998 419.069 383.488 417.659C382.745 414.783 384.682 412.474 384.682 412.474C384.682 412.474 389.437 407.269 391.648 404.451C393.801 401.712 395.62 399.051 396.795 397.152C399.103 393.435 399.828 389.619 398.614 386.664C393.135 373.28 387.474 359.967 381.63 346.726C380.475 344.104 377.051 342.226 373.939 341.854C372.883 341.724 371.826 341.619 370.769 341.541C368.142 341.39 365.508 341.416 362.884 341.619L366.836 341.482Z" fill="#999999"/>
</svg>
