<svg width="26" height="26" viewBox="0 0 26 26" fill="none" xmlns="http://www.w3.org/2000/svg">
<path d="M13.0013 2.16406C18.9846 2.16406 23.8347 7.01415 23.8347 12.9974C23.8347 18.9806 18.9846 23.8307 13.0013 23.8307C11.0868 23.834 9.20595 23.3274 7.55215 22.3628L2.17232 23.8307L3.63699 18.4487C2.67169 16.7944 2.16463 14.9127 2.16799 12.9974C2.16799 7.01415 7.01807 2.16406 13.0013 2.16406ZM9.30932 7.90573L9.09265 7.9144C8.95257 7.92405 8.8157 7.96084 8.68965 8.02273C8.57219 8.08937 8.46493 8.17255 8.37115 8.26973C8.24115 8.39215 8.16749 8.49831 8.0884 8.60123C7.6877 9.12221 7.47196 9.76182 7.47524 10.4191C7.4774 10.9499 7.61607 11.4666 7.83274 11.9498C8.27582 12.927 9.0049 13.9616 9.9669 14.9203C10.1987 15.1511 10.4262 15.3829 10.6711 15.5985C11.8665 16.6508 13.2909 17.4098 14.8311 17.815L15.4464 17.9092C15.6468 17.9201 15.8472 17.9049 16.0487 17.8951C16.3642 17.8785 16.6722 17.7931 16.9512 17.6449C17.0929 17.5716 17.2313 17.4921 17.3661 17.4066C17.3661 17.4066 17.4119 17.3755 17.5015 17.3091C17.6477 17.2007 17.7377 17.1238 17.859 16.9971C17.95 16.9032 18.0258 16.7941 18.0865 16.6699C18.171 16.4933 18.2555 16.1564 18.2902 15.8758C18.3162 15.6613 18.3086 15.5443 18.3053 15.4717C18.301 15.3558 18.2046 15.2356 18.0995 15.1846L17.469 14.9019C17.469 14.9019 16.5265 14.4913 15.9502 14.2291C15.8898 14.2029 15.8252 14.1878 15.7595 14.1847C15.6854 14.177 15.6104 14.1852 15.5398 14.209C15.4691 14.2327 15.4044 14.2714 15.35 14.3223C15.3446 14.3201 15.272 14.3819 14.4887 15.3309C14.4438 15.3913 14.3819 15.437 14.3109 15.462C14.2399 15.4871 14.163 15.4905 14.0901 15.4717C14.0195 15.4529 13.9503 15.429 13.8832 15.4002C13.7488 15.3439 13.7022 15.3222 13.6102 15.2832C12.9882 15.0123 12.4125 14.6457 11.9039 14.1966C11.7674 14.0775 11.6407 13.9475 11.5107 13.8218C11.0845 13.4136 10.713 12.9519 10.4057 12.4481L10.3417 12.3452C10.2965 12.2757 10.2594 12.2012 10.2312 12.1231C10.1901 11.9639 10.2973 11.8361 10.2973 11.8361C10.2973 11.8361 10.5606 11.5479 10.683 11.3919C10.8022 11.2402 10.9029 11.0929 10.9679 10.9878C11.0957 10.782 11.1358 10.5707 11.0687 10.4071C10.7653 9.66615 10.4519 8.92912 10.1283 8.19606C10.0644 8.0509 9.87482 7.9469 9.70257 7.92631C9.64407 7.91909 9.58557 7.91331 9.52707 7.90898C9.38161 7.90064 9.23575 7.90208 9.09049 7.91331L9.30932 7.90573Z" fill="#999999"/>
</svg>
