<svg width="214" height="238" viewBox="0 0 214 238" fill="none" xmlns="http://www.w3.org/2000/svg">
<mask id="mask0_880_8979" style="mask-type:luminance" maskUnits="userSpaceOnUse" x="0" y="0" width="214" height="238">
<path d="M0 0H213.989V237.333H0V0Z" fill="white"/>
</mask>
<g mask="url(#mask0_880_8979)">
<mask id="mask1_880_8979" style="mask-type:luminance" maskUnits="userSpaceOnUse" x="0" y="0" width="214" height="238">
<path fill-rule="evenodd" clip-rule="evenodd" d="M47.5498 174.859C43.6084 171.728 39.9406 168.263 36.9921 164.464C24.3473 148.141 23.7799 119.893 23.7799 100.338V71.198H0V100.338C0 145.344 6.84927 168.081 23.7799 185.396C30.1935 192.003 38.0459 197.788 47.5498 203.675C54.5409 208.042 62.4844 212.51 71.3297 217.393V80.9754L95.1096 104.705V230.778C99.051 232.966 103.043 235.145 106.995 237.333C110.936 235.145 114.938 232.966 118.879 230.778V104.705L142.659 80.9754V217.444C151.505 212.55 159.398 208.092 166.439 203.725C175.903 197.788 183.796 192.003 190.209 185.447C207.14 168.121 213.989 145.344 213.989 100.388V71.2486H190.209V100.388C190.209 119.943 189.591 148.232 176.987 164.565C174.038 168.364 170.381 171.83 166.439 174.96V47.4586H142.659L118.879 71.198V23.7293H190.169V47.4586H213.938V0H0V47.4586H23.7799V23.7293H95.059V71.198L71.279 47.4586H47.5092V174.859H47.5498Z" fill="white"/>
</mask>
<g mask="url(#mask1_880_8979)">
<path d="M0 0V237.333H213.989V0H0Z" fill="#38874A"/>
</g>
</g>
</svg>
