<svg width="175" height="194" viewBox="0 0 175 194" fill="none" xmlns="http://www.w3.org/2000/svg">
<mask id="mask0_913_415" style="mask-type:luminance" maskUnits="userSpaceOnUse" x="0" y="0" width="175" height="194">
<path fill-rule="evenodd" clip-rule="evenodd" d="M38.8315 142.798C35.6127 140.242 32.6174 137.412 30.2096 134.309C19.8832 120.979 19.4199 97.9102 19.4199 81.9407V58.1438H0V81.9407C0 118.695 5.59345 137.263 19.4199 151.404C24.6575 156.799 31.0701 161.523 38.8315 166.331C44.5407 169.897 51.0278 173.546 58.2513 177.534V66.1285L77.6712 85.507V188.465C80.8899 190.252 84.15 192.031 87.377 193.818C90.5957 192.031 93.8641 190.252 97.0828 188.465V85.507L116.503 66.1285V177.576C123.726 173.579 130.172 169.938 135.922 166.372C143.651 161.523 150.096 156.799 155.334 151.445C169.16 137.296 174.754 118.695 174.754 81.9821V58.1851H155.334V81.9821C155.334 97.9516 154.829 121.054 144.536 134.392C142.128 137.495 139.141 140.324 135.922 142.881V38.757H116.503L97.0828 58.1438V19.3785H155.301V38.757H174.713V0H0V38.757H19.4199V19.3785H77.6298V58.1438L58.2099 38.757H38.7984V142.798H38.8315Z" fill="white"/>
</mask>
<g mask="url(#mask0_913_415)">
<path d="M0 0V193.818H174.754V0H0Z" fill="url(#paint0_linear_913_415)"/>
</g>
<defs>
<linearGradient id="paint0_linear_913_415" x1="87.377" y1="0" x2="87.377" y2="193.818" gradientUnits="userSpaceOnUse">
<stop stop-color="#8CBD97"/>
<stop offset="1" stop-color="#2B7F3D"/>
</linearGradient>
</defs>
</svg>
